<?xml version="1.0" encoding="UTF-8" standalone="no"?>
<!-- Created with Inkscape (http://www.inkscape.org/) -->

<svg
   xmlns:dc="http://purl.org/dc/elements/1.1/"
   xmlns:cc="http://creativecommons.org/ns#"
   xmlns:rdf="http://www.w3.org/1999/02/22-rdf-syntax-ns#"
   xmlns:svg="http://www.w3.org/2000/svg"
   xmlns="http://www.w3.org/2000/svg"
   xmlns:sodipodi="http://sodipodi.sourceforge.net/DTD/sodipodi-0.dtd"
   xmlns:inkscape="http://www.inkscape.org/namespaces/inkscape"
   version="1.1"
   id="svg2"
   xml:space="preserve"
   width="666.66675"
   height="666.66669"
   viewBox="0 0 666.66677 666.66669"
   sodipodi:docname="job.svg"
   inkscape:version="0.92.3 (2405546, 2018-03-11)"
   inkscape:export-filename="/mnt/F/htdocs/codeigniter/cari-kerja/assets/img/logo.png"
   inkscape:export-xdpi="1191"
   inkscape:export-ydpi="1191"><metadata
     id="metadata8"><rdf:RDF><cc:Work
         rdf:about=""><dc:format>image/svg+xml</dc:format><dc:type
           rdf:resource="http://purl.org/dc/dcmitype/StillImage" /><dc:title></dc:title></cc:Work></rdf:RDF></metadata><defs
     id="defs6"><clipPath
       clipPathUnits="userSpaceOnUse"
       id="clipPath22"><path
         d="M 0,500 H 500 V 0 H 0 Z"
         id="path20"
         inkscape:connector-curvature="0" /></clipPath><clipPath
       clipPathUnits="userSpaceOnUse"
       id="clipPath46"><path
         d="M 0,0 H 500 V 500 H 0 Z"
         id="path44"
         inkscape:connector-curvature="0" /></clipPath><clipPath
       clipPathUnits="userSpaceOnUse"
       id="clipPath234"><path
         d="M 0,500 H 500 V 0 H 0 Z"
         id="path232"
         inkscape:connector-curvature="0" /></clipPath><clipPath
       clipPathUnits="userSpaceOnUse"
       id="clipPath254"><path
         d="M 0,500 H 500 V 0 H 0 Z"
         id="path252"
         inkscape:connector-curvature="0" /></clipPath><clipPath
       clipPathUnits="userSpaceOnUse"
       id="clipPath262"><path
         d="M 2.32909,496.915 H 497.671 V 9.09756 H 2.32909 Z"
         id="path260"
         inkscape:connector-curvature="0" /></clipPath><clipPath
       clipPathUnits="userSpaceOnUse"
       id="clipPath10678"><path
         d="M 0,500 H 500 V 0 H 0 Z"
         id="path10676"
         inkscape:connector-curvature="0" /></clipPath></defs><sodipodi:namedview
     pagecolor="#ffffff"
     bordercolor="#666666"
     borderopacity="1"
     objecttolerance="10"
     gridtolerance="10"
     guidetolerance="10"
     inkscape:pageopacity="0"
     inkscape:pageshadow="2"
     inkscape:window-width="1366"
     inkscape:window-height="714"
     id="namedview4"
     showgrid="false"
     inkscape:zoom="0.50063159"
     inkscape:cx="-355.52808"
     inkscape:cy="494.7135"
     inkscape:window-x="0"
     inkscape:window-y="22"
     inkscape:window-maximized="1"
     inkscape:current-layer="g10" /><g
     id="g10"
     inkscape:groupmode="layer"
     inkscape:label="373279-PBO5ET-905"
     transform="matrix(1.3333333,0,0,-1.3333333,0,666.66668)"><g
       id="g28"
       transform="matrix(0.7437466,0,0,0.88681694,364.86476,392.53401)"
       style="stroke-width:1.23131883"><path
         d="m 0,0 c -2.18,14.637 -9.303,30.652 -22.185,38.803 -13.451,8.51 -30.998,11.243 -46.631,11.8 -16.789,0.596 -35.5,-0.811 -51.104,-7.453 -12.642,-5.381 -23.398,-15.19 -29.913,-27.289 -7.818,-14.523 -9.799,-32.812 -4.144,-48.436 4.32,-11.934 13.494,-23.24 26.301,-25.647 -0.014,-0.041 -0.034,-0.077 -0.046,-0.121 -2.266,-8.492 -7.594,-15.698 -15.247,-20.083 -1.511,-0.866 -0.76,-3.041 0.849,-3.135 6.966,-0.405 13.97,0.872 20.39,3.595 7.003,2.971 12.004,7.46 17.355,12.687 3.721,3.635 8.216,2.71 12.976,2.723 4.858,0.013 9.715,0.184 14.563,0.507 8.575,0.572 17.123,1.623 25.584,3.133 14.358,2.563 29.79,6.46 39.976,17.677 C -1.185,-30.125 2.173,-14.596 0,0"
         style="fill:#f7be2a;fill-opacity:1;fill-rule:nonzero;stroke:none;stroke-width:1.23131883"
         id="path30"
         inkscape:connector-curvature="0" /></g><g
       id="g48"
       transform="translate(276.07564,271.93103)"><path
         d="m 0,0 c -2.826,4.962 -5.671,9.908 -8.548,14.846 -2.013,3.475 -4.044,6.935 -6.078,10.406 0.894,0.552 1.784,1.16 2.721,1.632 3.196,1.637 6.529,0.27 8.967,-2.227 C -1.08,22.752 0.37,19.85 1.78,17.606 3.09,15.542 4.508,13.447 5.569,11.241 8.131,5.885 4.455,2.269 0.085,0.067 0.045,0.045 0.029,0.019 0,0"
         style="fill:#f5f5f5;fill-opacity:1;fill-rule:nonzero;stroke:none"
         id="path50"
         inkscape:connector-curvature="0" /></g><g
       id="g52"
       transform="translate(228.60694,324.80013)"><path
         d="m 0,0 c 1.242,-3.385 3.305,-6.973 6.281,-9.132 0.6,-0.451 1.265,0.475 0.785,0.99 C 4.586,-5.429 2.405,-3.049 0.854,0.349 0.646,0.819 -0.182,0.499 0,0 m 4.067,-2.532 c 1.509,-2.094 2.885,-4.154 4.218,-6.36 0.48,-0.787 1.733,-0.088 1.261,0.712 -1.274,2.198 -2.957,4.396 -4.735,6.208 -0.36,0.352 -1.07,-0.12 -0.744,-0.56 m 20.496,-45.719 c -8.525,15.213 -16.187,31.187 -25.177,46.171 0.008,0.013 0.013,0.037 0.021,0.05 0.193,0.774 -0.338,1.31 -0.938,1.444 -0.67,1.091 -1.32,2.198 -1.997,3.275 -0.128,0.195 -0.28,0.305 -0.443,0.366 3.295,3.555 6.872,5.57 11.727,6.737 0.075,0.019 0.141,0.069 0.2,0.107 4.265,-8.638 9.84,-16.756 14.759,-25.015 4.943,-8.309 9.836,-16.643 14.688,-24.998 9.888,-17.039 19.555,-34.189 29.033,-51.443 0.061,-0.11 0.127,-0.195 0.203,-0.267 -2.506,-5.353 -7.081,-7.594 -12.928,-7.06 -0.029,0.072 -0.061,0.155 -0.104,0.236 -9.87,16.691 -19.56,33.484 -29.044,50.397"
         style="fill:#f5f5f5;fill-opacity:1;fill-rule:nonzero;stroke:none"
         id="path54"
         inkscape:connector-curvature="0" /></g><g
       id="g56"
       transform="translate(117.32814,228.49063)"><path
         d="m 0,0 c 0.008,0.013 0.021,0.005 0.032,0.008 9.07,4.623 17.769,10.048 26.591,15.119 4.41,2.541 8.83,5.084 13.251,7.628 4.251,2.444 8.683,5.943 13.25,7.627 0.634,0.363 1.267,0.736 1.891,1.096 2.545,0.522 4.155,-0.3 4.846,-2.474 1.544,-1.689 2.607,-4.359 3.791,-6.33 C 66,18.76 68.35,14.847 70.701,10.923 l 7.58,-12.651 c 2.063,-3.451 8.788,-11.271 5.498,-15.436 -0.811,-1.019 -1.963,-1.941 -3.276,-2.768 -2.932,-1.877 -6.645,-3.348 -9.062,-4.745 -4.014,-2.306 -8.026,-4.623 -12.031,-6.927 -6.373,-3.666 -12.682,-7.723 -19.161,-11.325 -1.924,-1.058 -3.866,-2.088 -5.834,-3.055 -2.764,-2.005 -5.992,-2.38 -9.645,-1.139 -1.003,1.064 -1.878,2.206 -2.622,3.46 -1.226,1.779 -2.3,3.676 -3.439,5.511 -2.679,4.285 -5.361,8.58 -8.041,12.864 C 7.04,-19.473 -3.65,-7.486 0,0 m 48.262,24.657 c 0.55,0.296 0.196,1.261 -0.421,1.051 -3.462,-1.205 -6.666,-3.399 -9.459,-5.74 -0.432,-0.358 0.133,-1.123 0.584,-0.795 2.966,2.191 6.066,3.759 9.296,5.484 m 3.479,0.733 c -2.767,-1.723 -5.384,-3.363 -8.435,-4.578 -0.496,-0.192 -0.163,-1.027 0.341,-0.867 3.102,1.013 6.266,2.415 8.803,4.511 0.507,0.421 -0.141,1.291 -0.709,0.934"
         style="fill:#f5f5f5;fill-opacity:1;fill-rule:nonzero;stroke:none"
         id="path58"
         inkscape:connector-curvature="0" /></g><g
       id="g92"
       transform="translate(210.61864,148.27573)"><path
         d="m 0,0 c -0.55,-2.109 -0.153,-4.697 1.121,-6.441 1.301,-2.487 4.278,-1.879 6.647,-1.469 3.454,0.601 7.129,1.588 9.976,3.761 -0.024,-1.809 -0.038,-3.615 -0.052,-5.42 -0.763,-0.577 -1.528,-1.142 -2.292,-1.717 -1.086,-0.781 -2.233,-1.499 -3.337,-2.251 -2.233,-1.498 -4.463,-3.007 -6.696,-4.506 -0.923,-0.615 -1.905,-1.495 -2.94,-1.936 -1.944,-0.836 -6.372,-0.401 -8.054,1.073 -1.798,1.568 -3.168,5.646 -4.288,7.679 -5.555,9.994 -10.853,20.221 -16.934,29.913 1.606,2.01 3.562,3.893 5.578,5.667 0.341,-3.18 3.501,-5.712 7.022,-5.831 0.458,-0.021 0.941,-0.002 1.419,0.038 -0.587,-2.55 -0.415,-5.42 1.478,-7.373 1.267,-1.305 3.091,-1.983 4.793,-1.671 C -7.466,7.158 -7.803,4.558 -6.454,2.287 -5.228,0.236 -2.225,-1.53 0,0 m -2.193,-14.003 c 1.658,-1.376 3.861,-1.71 5.851,-0.919 0.619,0.245 0.193,1.318 -0.429,1.083 -1.688,-0.637 -3.361,-0.476 -4.873,0.54 -0.408,0.273 -0.949,-0.373 -0.549,-0.704 m 3.573,-3.369 c 0.592,0.307 0.203,1.185 -0.424,1.061 -2.529,-0.541 -4.646,-0.185 -6.435,1.851 -0.379,0.427 -1.147,-0.128 -0.822,-0.613 1.546,-2.335 5.093,-3.648 7.681,-2.299"
         style="fill:#e83842;fill-opacity:1;fill-rule:nonzero;stroke:none"
         id="path94"
         inkscape:connector-curvature="0" /></g><g
       id="g96"
       transform="translate(198.02834,206.36363)"><path
         d="M 0,0 C 1.793,-6.273 4.262,-12.572 7.829,-18.052 6.01,-18.755 4.26,-19.781 2.64,-20.968 c 0.027,0.483 0.008,0.966 -0.13,1.43 0.051,0.16 0.064,0.333 0,0.544 -4.563,13.959 -22.565,-0.738 -27.887,-5.979 -3.182,2.482 -7.404,3.593 -11.471,3.813 4.033,2.322 8.056,4.641 12.09,6.964 C -16.531,-9.467 -8.081,-4.999 0,0"
         style="fill:#e83842;fill-opacity:1;fill-rule:nonzero;stroke:none"
         id="path98"
         inkscape:connector-curvature="0" /></g><g
       id="g100"
       transform="translate(188.76954,203.81383)"><path
         d="M 0,0 C 2.417,1.396 6.13,2.868 9.062,4.745 L 9.555,3.995 C 9.222,3.787 9.014,3.396 9.163,2.889 9.192,2.771 9.229,2.667 9.259,2.55 1.178,-2.449 -7.272,-6.917 -15.5,-11.646 c -4.033,-2.323 -8.056,-4.642 -12.089,-6.964 -0.99,0.058 -1.966,0.064 -2.921,0.029 -0.168,-0.008 -0.307,-0.042 -0.438,-0.108 l -0.245,0.437 c 6.48,3.602 12.789,7.659 19.162,11.325 C -8.027,-4.623 -4.015,-2.307 0,0"
         style="fill:#1c1c1b;fill-opacity:1;fill-rule:nonzero;stroke:none"
         id="path102"
         inkscape:connector-curvature="0" /></g><g
       id="g104"
       transform="translate(207.37504,188.81583)"><path
         d="m 0,0 c -0.509,-0.139 -1.014,-0.298 -1.518,-0.504 -3.567,5.48 -6.035,11.778 -7.829,18.052 0.582,0.349 1.16,0.709 1.74,1.069 0.047,0.034 0.098,0.059 0.135,0.091 0.056,-0.089 0.091,-0.182 0.131,-0.297 C -5.411,12.047 -2.789,6.128 -0.035,0.094 -0.016,0.064 -0.008,0.032 0,0"
         style="fill:#1c1c1b;fill-opacity:1;fill-rule:nonzero;stroke:none"
         id="path106"
         inkscape:connector-curvature="0" /></g><g
       id="g108"
       transform="translate(207.37504,188.81583)"><path
         d="M 0,0 C 0.307,-0.864 -0.859,-1.507 -1.406,-0.68 -1.443,-0.621 -1.48,-0.562 -1.518,-0.504 -1.014,-0.298 -0.509,-0.139 0,0"
         style="fill:#1c1c1b;fill-opacity:1;fill-rule:nonzero;stroke:none"
         id="path110"
         inkscape:connector-curvature="0" /></g><g
       id="g112"
       transform="translate(161.18014,185.20343)"><path
         d="m 0,0 c -0.902,-0.521 -1.814,-1.043 -2.716,-1.562 -0.189,-0.105 -0.365,-0.216 -0.555,-0.321 -0.797,0.198 -0.821,1.428 -0.087,1.804 0.13,0.066 0.269,0.1 0.437,0.108 C -1.966,0.064 -0.99,0.059 0,0"
         style="fill:#1c1c1b;fill-opacity:1;fill-rule:nonzero;stroke:none"
         id="path114"
         inkscape:connector-curvature="0" /></g><g
       id="g116"
       transform="translate(251.10304,275.38613)"><path
         d="m 0,0 c -8.054,14.368 -16.898,28.766 -24.111,43.672 -7.297,-25.206 -22.616,-50.331 -46.262,-62.855 2.048,-3.388 4.069,-6.805 6.106,-10.196 5.095,-8.51 10.558,-16.905 15.386,-25.572 19.942,14.875 50.208,19.226 73.861,11.474 C 16.519,-29.064 8.174,-14.576 0,0 M -23.11,47.334 C -14.12,32.35 -6.458,16.376 2.067,1.163 c 9.484,-16.913 19.174,-33.706 29.044,-50.397 0.043,-0.08 0.075,-0.163 0.104,-0.236 5.847,-0.534 10.422,1.707 12.928,7.06 -0.076,0.072 -0.142,0.158 -0.204,0.267 C 34.462,-24.889 24.795,-7.739 14.907,9.3 10.055,17.655 5.162,25.989 0.219,34.298 -4.7,42.557 -10.275,50.675 -14.54,59.313 c -0.059,-0.038 -0.126,-0.088 -0.2,-0.107 -4.855,-1.167 -8.432,-3.182 -11.727,-6.737 0.163,-0.061 0.315,-0.171 0.443,-0.365 0.677,-1.078 1.327,-2.185 1.997,-3.276 0.6,-0.134 1.131,-0.67 0.938,-1.444 -0.008,-0.013 -0.014,-0.037 -0.021,-0.05 M -93.193,-92.065 c -3.303,-1.981 -6.894,-4.805 -10.634,-5.67 -3.537,-0.816 -6.137,1.017 -8.227,3.578 -10.489,-7.334 -23.941,-6.398 -30.539,5.409 -5.766,10.292 -4.906,26.818 7.367,32.003 -1.778,3.807 -2.646,7.92 -0.186,11.776 0.382,0.605 1.027,0.653 1.531,0.405 10.116,6.47 20.829,12.138 31.246,18.129 5.045,2.903 10.09,5.807 15.144,8.712 2.892,1.675 7.566,5.834 11.146,5.391 2.432,-0.299 3.309,-2.495 4.488,-4.399 0.117,-0.198 0.234,-0.395 0.362,-0.59 23.838,14.613 38.293,37.708 45.835,64.245 -0.661,1.422 -1.315,2.857 -1.946,4.297 -0.021,0.04 -0.024,0.096 -0.035,0.139 -0.635,-0.181 -1.368,0.621 -0.97,1.299 2.791,4.8 8.097,8.2 13.621,8.729 0.165,0.019 0.304,0.008 0.429,-0.04 0.262,0.133 0.582,0.123 0.816,-0.181 5.642,-7.433 10.132,-15.878 14.907,-23.879 2.816,-4.692 5.602,-9.403 8.376,-14.117 2.834,2.544 6.816,5.114 10.647,3.214 3.621,-1.794 6.063,-7.078 8.111,-10.284 2.524,-3.938 6.9,-9.295 5.693,-14.357 -0.891,-3.737 -4.539,-5.747 -7.828,-7.101 -0.031,-0.008 -0.066,-0.005 -0.099,-0.014 6.738,-11.817 13.387,-23.691 19.935,-35.612 0.039,-0.07 0.066,-0.131 0.096,-0.203 0.314,-0.216 0.527,-0.616 0.436,-1.16 -1.159,-6.751 -9.997,-11.44 -16.205,-8.592 -0.459,-0.116 -0.969,0.018 -1.277,0.531 -0.806,1.362 -1.6,2.728 -2.395,4.094 -0.08,0.003 -0.143,-0.013 -0.218,0.014 -13.087,3.43 -25.892,5.05 -39.376,2.986 -12.75,-1.959 -23.925,-6.96 -35.016,-13.29 2.684,-4.985 1.461,-8.26 -3.242,-11.259 -0.354,0.557 -1.09,0.599 -1.578,0.285 l -0.493,0.75 c 1.312,0.826 2.464,1.749 3.275,2.767 3.29,4.165 -3.435,11.986 -5.498,15.437 l -7.58,12.65 c -2.351,3.925 -4.7,7.838 -7.049,11.751 -1.184,1.972 -2.247,4.642 -3.791,6.331 -0.69,2.174 -2.301,2.995 -4.846,2.474 -0.624,-0.36 -1.257,-0.734 -1.891,-1.096 -4.567,-1.685 -8.998,-5.183 -13.25,-7.628 -4.421,-2.543 -8.841,-5.087 -13.251,-7.628 -8.822,-5.07 -17.521,-10.496 -26.591,-15.119 -0.01,-0.002 -0.024,0.006 -0.032,-0.008 -3.65,-7.486 7.04,-19.472 10.668,-25.288 2.68,-4.284 5.362,-8.579 8.041,-12.864 1.139,-1.835 2.213,-3.731 3.44,-5.511 0.743,-1.254 1.618,-2.395 2.621,-3.46 3.653,-1.241 6.881,-0.866 9.645,1.139 1.968,0.968 3.91,1.997 5.834,3.056 l 0.245,-0.438 c -0.734,-0.376 -0.71,-1.605 0.088,-1.803 m -20.189,-0.27 c -1.195,1.787 -2.223,3.685 -3.17,5.205 -5.548,8.872 -11.27,17.668 -16.639,26.642 -0.427,0.71 -0.843,1.422 -1.232,2.164 -9.708,-6.925 -11.975,-18.815 -6.113,-29.264 6.332,-11.284 17.305,-10.335 27.154,-4.747 m 138.44,88.947 c 4.37,2.202 8.046,5.818 5.484,11.174 -1.062,2.206 -2.48,4.3 -3.789,6.365 -1.41,2.244 -2.86,5.146 -4.719,7.051 -2.437,2.497 -5.77,3.863 -8.967,2.227 -0.936,-0.472 -1.827,-1.08 -2.72,-1.632 2.034,-3.471 4.065,-6.931 6.078,-10.406 2.877,-4.938 5.721,-9.884 8.548,-14.846 0.029,0.018 0.045,0.045 0.085,0.067"
         style="fill:#1c1c1b;fill-opacity:1;fill-rule:nonzero;stroke:none"
         id="path118"
         inkscape:connector-curvature="0" /></g><g
       id="g120"
       transform="translate(199.90334,207.52383)"><path
         d="m 0,0 c -0.037,-0.032 -0.088,-0.057 -0.136,-0.091 -0.579,-0.36 -1.157,-0.72 -1.739,-1.069 -0.029,0.117 -0.067,0.222 -0.096,0.339 -0.149,0.507 0.059,0.898 0.392,1.106 C -1.09,0.6 -0.354,0.558 0,0"
         style="fill:#1c1c1b;fill-opacity:1;fill-rule:nonzero;stroke:none"
         id="path122"
         inkscape:connector-curvature="0" /></g><path
       inkscape:connector-curvature="0"
       id="path126"
       style="fill:#1c1c1b;fill-opacity:1;fill-rule:nonzero;stroke:none"
       d="m 169.89164,124.71873 c -3.967,5.992 -7.646,12.418 -10.518,19.013 l 1.225,0.77 c 4.053,-6.333 7.822,-12.941 11.552,-19.479 0.059,-0.099 0.072,-0.198 0.096,-0.293 10.524,-4.151 20.919,-2.927 29.509,4.796 -1.944,3.062 -3.343,6.804 -4.641,9.144 -4.916,8.838 -10.073,17.593 -14.548,26.665 -2.17,-3.205 -3.325,-6.747 -2.42,-10.737 0.331,-1.414 -1.793,-1.944 -2.187,-0.546 -1.596,5.574 0.661,10.56 4.37,14.727 1.043,1.178 4.154,3.61 7.358,6.439 0.11,0.289 0.243,0.571 0.398,0.859 0.283,0.501 0.725,0.635 1.136,0.534 3.935,3.624 7.545,7.642 7.159,10.459 -5.842,8.549 -17.206,-0.092 -24.492,-7.681 l -1.345,0.662 c 0.459,0.114 0.774,0.805 0.347,1.151 -0.085,0.07 -0.157,0.131 -0.24,0.19 5.323,5.24 23.325,19.937 27.888,5.978 0.064,-0.211 0.05,-0.383 0,-0.544 0.138,-0.463 0.157,-0.947 0.13,-1.429 1.619,1.186 3.369,2.213 5.189,2.916 0.037,-0.059 0.074,-0.117 0.112,-0.176 0.546,-0.827 1.712,-0.185 1.405,0.68 2.329,0.661 4.727,0.727 7.066,-0.106 3.859,-1.383 6.179,-5.632 4.561,-9.141 4.764,-0.24 8.897,-3.265 5.578,-8.764 -0.304,-0.507 -0.638,-0.986 -0.982,-1.47 4.83,-2.001 8.435,-5.861 4.644,-11.013 -0.075,-0.11 -0.166,-0.201 -0.241,-0.31 5.097,-1.073 5.519,-7.849 2.32,-11.969 3.998,-2.617 1.519,-7.487 -1.589,-10.02 -3.57,-2.909 -7.758,-5.292 -11.586,-7.847 -2.284,-1.522 -4.818,-3.538 -7.659,-3.737 -2.795,-0.2 -4.931,1.364 -6.667,3.594 -6.82,-7.506 -18.735,-10.448 -28.282,-6.802 0.922,-1.969 1.124,-4.14 -0.352,-6.084 -2.793,-3.656 -8.283,-6.63601 -12.815,-7.46201 l -0.669,1.272 c 3.161,1.68501 6.399,3.10601 9.23,5.34301 1.564,1.23 3.458,2.632 3,4.875 -0.363,1.723 -1.766,3.164 -2.84,4.471 -0.291,0.346 -0.32,0.736 -0.2,1.072 m 45.237,54.427 c 0.371,0.104 0.747,0.186 1.126,0.259 0.011,0.002 0.019,0.015 0.029,0.018 2.575,3.533 -0.569,6.863 -4.153,7.464 -2.425,0.403 -4.719,-0.396 -6.89,-1.414 -2.199,-1.048 -4.245,-2.387 -6.165,-3.909 -0.456,-0.624 -0.985,-1.232 -1.529,-1.776 -1.564,-1.547 -3.489,-3.138 -5.483,-4.826 -0.007,-0.014 -0.013,-0.038 -0.029,-0.064 -3.202,-6.74 6.301,-5.76 9.089,-4.713 1.896,0.712 3.681,1.645 5.423,2.658 2.753,1.595 5.258,3.546 7.87,5.343 0.032,0.416 0.256,0.835 0.712,0.96 m 10.928,-23.33 c -3.57,-3.589 -8.391,-6.119 -13.355,-7.076 -0.147,-1.136 -0.251,-2.216 0.002,-3.366 0.282,-1.312 0.997,-2.312 1.591,-3.468 2.638,-0.486 7.093,1.33 8.878,2.036 1.763,0.701 3.425,1.535 4.791,2.92 2.604,2.644 3.63,9.294 -1.907,8.954 m 2.306,-11.689 c -2.846,-2.173 -6.522,-3.159 -9.976,-3.761 -2.369,-0.41 -5.346,-1.017 -6.647,1.469 -1.274,1.744 -1.671,4.332 -1.121,6.442 -2.225,-1.531 -5.228,0.236 -6.454,2.287 -1.349,2.27 -1.012,4.871 -0.105,7.228 -1.702,-0.311 -3.526,0.366 -4.793,1.671 -1.893,1.953 -2.065,4.823 -1.478,7.373 -0.478,-0.04 -0.96,-0.058 -1.419,-0.037 -3.521,0.118 -6.681,2.65 -7.021,5.83 -2.017,-1.773 -3.973,-3.656 -5.579,-5.667 6.081,-9.691 11.379,-19.919 16.934,-29.912 1.12,-2.033 2.49,-6.111 4.288,-7.68 1.682,-1.473 6.11,-1.909 8.054,-1.072 1.035,0.441 2.017,1.32 2.94,1.936 2.233,1.499 4.463,3.007 6.696,4.506 1.105,0.751 2.252,1.469 3.337,2.25 0.764,0.576 1.529,1.141 2.292,1.717 0.014,1.806 0.028,3.612 0.052,5.42 m -8.802,9.647 c 1.753,1.061 3.833,2.397 5.146,4.04 2.308,1.925 2.54,4.624 0.704,8.076 -1.035,0.648 -2.128,1.169 -3.281,1.561 -4.076,-4.691 -9.959,-8.052 -16.053,-9.019 -0.935,-3.838 -1.224,-8.716 4.134,-8.433 0.024,-0.005 0.048,-0.009 0.083,-0.012 3.236,0.886 6.383,2.036 9.267,3.787 m -2.013,12.555 c 1.737,1.489 4.997,4.184 5.451,6.541 0.928,1.139 0.44,2.049 -1.445,2.745 -0.968,1.878 -2.413,2.447 -4.355,1.736 l -0.022,-0.006 c -0.029,-0.019 -0.053,-0.013 -0.082,-0.032 -0.035,0.003 -0.078,-0.008 -0.113,-0.005 -0.064,-0.016 -0.141,-0.024 -0.21,-0.019 -0.288,-0.026 -0.587,-0.055 -0.883,-0.095 -3.869,-4.481 -10.415,-8.995 -16.401,-10.126 -0.139,-1.758 -0.174,-3.615 0.737,-5.178 1.056,-1.821 2.945,-2.303 4.833,-1.604 0.134,0.056 0.27,0.056 0.4,0.032 4.388,1.22 8.552,2.974 12.09,6.011" /><g
       id="g128"
       transform="translate(171.59424,180.31183)"><path
         d="m 0,0 c -4.437,1.748 -8.459,3.191 -13.391,2.969 -0.102,-0.002 -0.206,0.006 -0.294,0.04 0.19,0.104 0.366,0.216 0.555,0.32 0.902,0.52 1.814,1.042 2.716,1.563 C -6.347,4.672 -2.125,3.561 1.057,1.079 0.702,0.73 0.35,0.37 0,0"
         style="fill:#1c1c1b;fill-opacity:1;fill-rule:nonzero;stroke:none"
         id="path130"
         inkscape:connector-curvature="0" /></g><g
       id="g132"
       transform="translate(144.58064,142.46273)"><path
         d="m -0.346,0.299 c 4.036,2.492 8.414,4.526 12.658,6.641 0.331,0.172 0.851,0.178 1.104,-0.156 0.576,-0.762 1.152,-1.525 1.72,-2.301 -2.291,12.486 4.618,25.308 13.102,34.137 0.2,-0.075 0.403,-0.16 0.616,-0.243 0.115,-0.051 0.227,-0.046 0.334,-0.018 l 1.344,-0.663 c -2.311,-2.413 -4.218,-4.714 -5.4,-6.335 -6.29,-8.587 -8.375,-17.893 -8.02,-28.346 0.04,-0.07 0.09,-0.136 0.13,-0.205 L 16.018,2.039 C 15.88,2.095 15.762,2.201 15.672,2.338 15.498,2.306 15.298,2.335 15.112,2.492 14.231,3.293 13.391,4.114 12.583,4.989 8.68,2.735 4.77,0.375 0.683,-1.508 0.195,-1.731 -0.248,-1.593 -0.525,-1.299 l -0.256,0.39 c -0.147,0.405 -0.066,0.901 0.435,1.208"
         style="fill:#1c1c1b;fill-opacity:1;fill-rule:nonzero;stroke:none"
         id="path134"
         inkscape:connector-curvature="0" /></g><g
       id="g136"
       transform="translate(172.89064,181.20153)"><path
         d="m 0,0 c 0.427,-0.347 0.112,-1.037 -0.347,-1.151 -0.107,-0.028 -0.218,-0.033 -0.333,0.018 -0.214,0.083 -0.416,0.168 -0.616,0.243 0.349,0.37 0.701,0.731 1.056,1.079 C -0.157,0.131 -0.085,0.069 0,0"
         style="fill:#1c1c1b;fill-opacity:1;fill-rule:nonzero;stroke:none"
         id="path138"
         inkscape:connector-curvature="0" /></g><g
       id="g140"
       transform="translate(246.19874,238.46763)"><path
         d="m 0,0 c -0.56,-0.208 -0.376,-1.08 0.232,-0.928 3.478,0.823 6.519,0.676 10.007,0.141 0.673,-0.104 0.766,0.928 0.174,1.12 C 7.122,1.438 3.252,1.141 0,0 M 29.885,-6.559 C 6.231,1.193 -24.035,-3.157 -43.977,-18.033 -48.805,-9.366 -54.268,-0.97 -59.363,7.54 -61.4,10.93 -63.42,14.347 -65.468,17.735 -41.822,30.26 -26.503,55.384 -19.207,80.59 -11.994,65.684 -3.15,51.287 4.904,36.918 13.078,22.343 21.423,7.854 29.885,-6.559 M 5.039,1.972 C 8.271,1.918 11.062,1.458 14.177,0.65 15.121,0.409 15.463,1.719 14.594,2.068 11.684,3.235 8.006,3.529 4.925,3.021 4.327,2.917 4.458,1.986 5.039,1.972"
         style="fill:#e83842;fill-opacity:1;fill-rule:nonzero;stroke:none"
         id="path142"
         inkscape:connector-curvature="0" /></g><g
       id="g144"
       transform="translate(122.36284,182.45833)"><path
         d="M 0,0 C -1.806,0.512 -3.454,1.393 -4.947,2.516 -5.251,2.735 -5.648,2.239 -5.36,1.993 -2.553,-0.399 1.856,-2.394 5.622,-1.544 6.19,-1.413 6.057,-0.607 5.513,-0.562 3.62,-0.423 1.856,-0.534 0,0 M 15.358,0.593 C 5.509,-4.995 -5.464,-5.944 -11.796,5.34 c -5.862,10.449 -3.595,22.339 6.113,29.264 0.39,-0.743 0.805,-1.455 1.232,-2.165 C 0.918,23.466 6.64,14.67 12.188,5.798 13.135,4.277 14.164,2.38 15.358,0.593 M 8.293,0.744 C 8.992,0.806 9,1.907 8.314,1.838 5.333,1.523 2.492,1.869 -0.389,2.69 -0.853,2.824 -1.034,2.145 -0.597,1.981 2.233,0.863 5.276,0.523 8.293,0.744"
         style="fill:#e83842;fill-opacity:1;fill-rule:nonzero;stroke:none"
         id="path146"
         inkscape:connector-curvature="0" /></g><g
       id="g148"
       transform="translate(233.41794,322.82803)"><path
         d="M 0,0 C 1.778,-1.812 3.461,-4.01 4.735,-6.208 5.207,-7.008 3.954,-7.707 3.474,-6.92 2.141,-4.714 0.765,-2.654 -0.744,-0.56 -1.07,-0.12 -0.36,0.352 0,0"
         style="fill:#1c1c1b;fill-opacity:1;fill-rule:nonzero;stroke:none"
         id="path150"
         inkscape:connector-curvature="0" /></g><g
       id="g152"
       transform="translate(260.37544,239.11753)"><path
         d="M 0,0 C -3.115,0.809 -5.905,1.268 -9.138,1.322 -9.719,1.336 -9.85,2.267 -9.252,2.371 -6.171,2.879 -2.493,2.585 0.417,1.418 1.286,1.069 0.944,-0.241 0,0"
         style="fill:#1c1c1b;fill-opacity:1;fill-rule:nonzero;stroke:none"
         id="path154"
         inkscape:connector-curvature="0" /></g><g
       id="g156"
       transform="translate(229.46044,325.14923)"><path
         d="M 0,0 C 1.551,-3.398 3.732,-5.778 6.212,-8.491 6.692,-9.006 6.028,-9.932 5.428,-9.481 2.452,-7.322 0.388,-3.734 -0.854,-0.349 -1.035,0.15 -0.208,0.47 0,0"
         style="fill:#1c1c1b;fill-opacity:1;fill-rule:nonzero;stroke:none"
         id="path158"
         inkscape:connector-curvature="0" /></g><g
       id="g160"
       transform="translate(246.19874,238.46763)"><path
         d="M 0,0 C 3.252,1.141 7.122,1.438 10.413,0.333 11.005,0.141 10.912,-0.891 10.239,-0.787 6.751,-0.252 3.71,-0.105 0.232,-0.928 -0.376,-1.08 -0.56,-0.208 0,0"
         style="fill:#1c1c1b;fill-opacity:1;fill-rule:nonzero;stroke:none"
         id="path162"
         inkscape:connector-curvature="0" /></g><g
       id="g164"
       transform="translate(214.27684,133.35383)"><path
         d="M 0,0 C -1.99,-0.791 -4.193,-0.457 -5.852,0.919 -6.251,1.25 -5.71,1.896 -5.302,1.623 -3.79,0.606 -2.118,0.446 -0.429,1.083 0.192,1.317 0.619,0.245 0,0"
         style="fill:#1c1c1b;fill-opacity:1;fill-rule:nonzero;stroke:none"
         id="path166"
         inkscape:connector-curvature="0" /></g><g
       id="g168"
       transform="translate(205.13914,133.81583)"><path
         d="M 0,0 C 1.789,-2.036 3.907,-2.392 6.436,-1.851 7.062,-1.728 7.452,-2.605 6.859,-2.912 4.271,-4.261 0.725,-2.948 -0.822,-0.613 -1.147,-0.128 -0.379,0.427 0,0"
         style="fill:#1c1c1b;fill-opacity:1;fill-rule:nonzero;stroke:none"
         id="path170"
         inkscape:connector-curvature="0" /></g><g
       id="g172"
       transform="translate(169.77784,252.94613)"><path
         d="m 0,0 c -2.537,-2.096 -5.701,-3.498 -8.803,-4.511 -0.504,-0.159 -0.837,0.676 -0.341,0.867 3.052,1.216 5.668,2.855 8.435,4.578 C -0.141,1.291 0.507,0.421 0,0"
         style="fill:#1c1c1b;fill-opacity:1;fill-rule:nonzero;stroke:none"
         id="path174"
         inkscape:connector-curvature="0" /></g><g
       id="g176"
       transform="translate(165.59034,253.14733)"><path
         d="m 0,0 c -3.23,-1.725 -6.33,-3.292 -9.296,-5.484 -0.452,-0.328 -1.017,0.438 -0.584,0.795 2.793,2.341 5.997,4.536 9.459,5.74 C 0.195,1.262 0.55,0.296 0,0"
         style="fill:#1c1c1b;fill-opacity:1;fill-rule:nonzero;stroke:none"
         id="path178"
         inkscape:connector-curvature="0" /></g><g
       id="g180"
       transform="translate(159.37364,143.73173)"><path
         d="M 0,0 C -1.115,1.83 -1.197,4.474 0.082,6.255 0.538,6.879 1.444,6.334 1.108,5.639 0.26,3.907 0.035,2.265 0.795,0.448 1.019,-0.086 0.32,-0.51 0,0"
         style="fill:#1c1c1b;fill-opacity:1;fill-rule:nonzero;stroke:none"
         id="path182"
         inkscape:connector-curvature="0" /></g><g
       id="g188"
       transform="translate(160.03912,118.28159)"><path
         d="M 0,0 C 0.504,0.659 1.089,0.952 1.801,1.096 1.982,1.142 2.158,1.162 2.348,1.176 2.382,1.173 2.404,1.179 2.436,1.187 2.457,1.191 2.47,1.184 2.483,1.176 3.865,1.181 5.311,0.204 5.889,-1.022 6.771,-2.922 5.507,-4.893 3.613,-5.434 1.668,-5.999 -0.502,-4.977 -0.793,-2.861 -0.929,-1.864 -0.616,-0.8 0,0 M 1.216,-0.784 C 0.381,-2.206 0.957,-4.465 3.112,-3.882 4.067,-3.62 4.867,-2.74 4.398,-1.724 3.852,-0.489 2.584,-0.363 1.467,-0.744 1.384,-0.776 1.296,-0.787 1.216,-0.784"
         style="fill:#1c1c1b;fill-opacity:1;fill-rule:nonzero;stroke:none"
         id="path190"
         inkscape:connector-curvature="0" /></g><g
       id="g192"
       transform="translate(159.73881,120.51691)"><path
         d="M 0,0 C -1.336,-0.73 -2.177,-2.176 -1.377,-3.654 -1.14,-4.104 -1.772,-4.433 -2.052,-4.038 -3.19,-2.43 -2.443,0.478 -0.365,0.917 0.185,1.032 0.51,0.274 0,0"
         style="fill:#1c1c1b;fill-opacity:1;fill-rule:nonzero;stroke:none"
         id="path194"
         inkscape:connector-curvature="0" /></g><g
       id="g196"
       transform="translate(162.38712,119.45759)"><path
         d="m 0,0 c -1.214,-0.904 -1.86,-2.357 -1.641,-3.867 0.063,-0.484 -0.625,-0.678 -0.747,-0.187 -0.429,1.854 0.324,3.832 1.919,4.889 C 0.056,1.182 0.478,0.356 0,0"
         style="fill:#1c1c1b;fill-opacity:1;fill-rule:nonzero;stroke:none"
         id="path198"
         inkscape:connector-curvature="0" /></g><g
       id="g204"
       transform="translate(130.67724,184.29623)"><path
         d="m 0,0 c 0.686,0.069 0.677,-1.032 -0.021,-1.094 -3.018,-0.22 -6.061,0.119 -8.89,1.238 -0.438,0.163 -0.256,0.842 0.208,0.709 C -5.823,0.031 -2.982,-0.314 0,0"
         style="fill:#1c1c1b;fill-opacity:1;fill-rule:nonzero;stroke:none"
         id="path206"
         inkscape:connector-curvature="0" /></g><g
       id="g208"
       transform="translate(117.41554,184.97403)"><path
         d="M 0,0 C 1.494,-1.123 3.142,-2.004 4.947,-2.516 6.804,-3.05 8.567,-2.938 10.46,-3.078 11.004,-3.123 11.138,-3.929 10.569,-4.06 6.803,-4.909 2.395,-2.915 -0.413,-0.522 -0.701,-0.276 -0.304,0.22 0,0"
         style="fill:#1c1c1b;fill-opacity:1;fill-rule:nonzero;stroke:none"
         id="path210"
         inkscape:connector-curvature="0" /></g><path
       style="opacity:1;fill:#ffccaa;fill-opacity:1;stroke:none;stroke-width:3.75;stroke-linecap:round;stroke-linejoin:miter;stroke-miterlimit:4;stroke-dasharray:none;stroke-opacity:1;paint-order:markers fill stroke"
       d="m 180.52724,122.65444 c -2.52345,0.31682 -8.27212,1.8858 -8.27212,2.2577 0,0.29842 -6.92951,12.16606 -9.98196,17.09535 l -1.49454,2.41347 0.44806,0.3445 c 0.24643,0.18948 0.49019,0.34662 0.54168,0.34921 0.0515,0.002 0.0955,1.62663 0.0978,3.60899 0.006,5.39211 0.64411,9.39204 2.2583,14.16074 1.87111,5.52767 4.96815,10.56344 9.60476,15.61728 0.73417,0.80023 1.33485,1.56109 1.33485,1.69078 0,0.45429 3.82662,3.93193 6.46968,5.87967 2.01622,1.48581 4.62763,2.9652 6.42333,3.63889 1.48604,0.55751 1.80563,0.60872 3.86707,0.61957 2.08883,0.011 2.32158,-0.0247 3.30328,-0.50681 0.58086,-0.28526 1.53737,-1.00154 2.12558,-1.59174 l 1.06947,-1.0731 -0.0965,-0.95924 c -0.18275,-1.81644 -1.61516,-3.98504 -4.76377,-7.2121 -1.47447,-1.51121 -2.29534,-2.21279 -2.67874,-2.28947 -0.3967,-0.0793 -0.64309,-0.29987 -0.87248,-0.78089 -0.21176,-0.44408 -1.50694,-1.68417 -3.83716,-3.67397 -3.61942,-3.09067 -5.12004,-4.71714 -6.50862,-7.05447 -1.54439,-2.59959 -2.41542,-6.00037 -2.16379,-8.44815 0.17086,-1.66212 0.46619,-2.84734 0.80791,-3.24231 0.6827,-0.78909 2.25087,-0.0483 2.02089,0.95464 -0.0626,0.27315 -0.16628,1.29795 -0.23033,2.27732 -0.0961,1.46955 -0.0465,2.05851 0.28387,3.37075 0.39283,1.56028 1.80853,4.68429 2.17722,4.80444 0.103,0.0335 0.75317,-1.05515 1.44484,-2.41936 1.86421,-3.67691 3.99739,-7.59283 8.84897,-16.24425 2.39695,-4.27429 5.34985,-9.79067 6.56199,-12.25863 l 2.2039,-4.48718 -0.81838,-0.72625 c -1.11224,-0.98703 -3.89222,-2.82884 -5.46602,-3.62139 -1.57938,-0.79537 -4.58006,-1.8074 -6.5956,-2.22449 -1.77203,-0.3667 -6.17457,-0.51294 -8.11344,-0.2695 z"
       id="path11997"
       inkscape:connector-curvature="0" /><path
       style="opacity:1;fill:#ffccaa;fill-opacity:1;stroke:none;stroke-width:3.75;stroke-linecap:round;stroke-linejoin:miter;stroke-miterlimit:4;stroke-dasharray:none;stroke-opacity:1;paint-order:markers fill stroke"
       d="m 195.10126,169.59444 c -2.20756,0.24237 -3.558,1.30598 -3.558,2.80229 0,1.80819 0.23646,2.16902 2.98535,4.55562 1.39641,1.21236 3.17094,2.87276 3.9434,3.68978 3.09595,3.2745 8.93198,6.23592 12.28908,6.23592 2.3926,0 4.80445,-1.21791 5.81009,-2.9339 0.66431,-1.13357 0.69913,-2.40692 0.0996,-3.6441 -0.37112,-0.76587 -0.5068,-0.88035 -1.16878,-0.98621 -0.55825,-0.0893 -0.80447,-0.24165 -0.96707,-0.59852 -0.23381,-0.51315 -5.09472,-4.0267 -7.83651,-5.66436 -1.78551,-1.06647 -4.67331,-2.46392 -6.0092,-2.90794 -0.91271,-0.30337 -3.64585,-0.70205 -4.45948,-0.65051 -0.26019,0.0165 -0.76801,0.0623 -1.1285,0.10193 z"
       id="path11999"
       inkscape:connector-curvature="0" /><path
       style="opacity:1;fill:#ffccaa;fill-opacity:1;stroke:none;stroke-width:3.75;stroke-linecap:round;stroke-linejoin:miter;stroke-miterlimit:4;stroke-dasharray:none;stroke-opacity:1;paint-order:markers fill stroke"
       d="m 201.80598,160.48149 c -1.30653,0.69002 -2.15551,2.2797 -2.21199,4.14183 -0.0699,2.30434 -0.0558,2.36243 0.60689,2.50798 4.38064,0.96216 9.79887,4.13196 13.86887,8.11364 1.69538,1.65859 1.91459,1.81114 2.90258,2.01999 2.23748,0.47295 3.34224,0.16628 4.15842,-1.1543 0.21629,-0.34998 0.55806,-0.68862 0.7595,-0.75256 0.52146,-0.1655 1.4878,-1.01426 1.4878,-1.30676 0,-0.51223 -1.17978,-2.84811 -1.93239,-3.82597 -1.68672,-2.19157 -6.1761,-5.74844 -9.10476,-7.21357 -2.9919,-1.49677 -7.42982,-2.92101 -9.0492,-2.90413 -0.43644,0.005 -1.10502,0.17279 -1.48572,0.37385 z"
       id="path12001"
       inkscape:connector-curvature="0" /><path
       style="opacity:1;fill:#ffccaa;fill-opacity:1;stroke:none;stroke-width:3.75;stroke-linecap:round;stroke-linejoin:miter;stroke-miterlimit:4;stroke-dasharray:none;stroke-opacity:1;paint-order:markers fill stroke"
       d="m 208.71387,150.18071 c -1.11257,0.18908 -2.06427,0.89252 -2.60301,1.924 -0.33789,0.64692 -0.41007,1.09798 -0.41035,2.56402 -1.8e-4,0.97845 0.1069,2.21164 0.23795,2.74042 l 0.23828,0.96142 1.15693,0.22309 c 2.85452,0.55041 6.54105,2.13225 9.40578,4.03587 1.63973,1.0896 4.49347,3.50613 5.06441,4.28851 l 0.35697,0.48917 1.63002,-0.78 1.63001,-0.78001 0.52351,-1.42262 c 0.67068,-1.82252 0.71246,-3.66315 0.1088,-4.79337 -0.57608,-1.07858 -3.25626,-3.63396 -5.10955,-4.87163 -2.10619,-1.40656 -5.59803,-3.07683 -8.14596,-3.8965 -2.50585,-0.80613 -2.9343,-0.87772 -4.08379,-0.68237 z"
       id="path12003"
       inkscape:connector-curvature="0" /><path
       style="opacity:1;fill:none;fill-opacity:1;stroke:none;stroke-width:3.75;stroke-linecap:round;stroke-linejoin:miter;stroke-miterlimit:4;stroke-dasharray:none;stroke-opacity:1;paint-order:markers fill stroke"
       d="m 213.85656,142.91417 c -0.90852,1.58794 -1.15253,2.47102 -1.15253,4.17117 v 1.54543 l 1.26403,0.31476 c 4.05405,1.00951 8.26166,3.222 11.06482,5.8182 l 1.18668,1.09907 1.04901,-0.22003 c 1.2121,-0.25425 2.15661,-1.03491 2.49589,-2.06293 0.12195,-0.36953 0.17574,-1.24032 0.12523,-2.02741 -0.17696,-2.75746 -1.79173,-5.01858 -4.66059,-6.52612 -2.85836,-1.50203 -7.03536,-2.86882 -9.26627,-3.03211 l -1.51641,-0.11099 z"
       id="path12005"
       inkscape:connector-curvature="0" /></g></svg>